<svg width="95" height="95" viewBox="0 0 95 95" fill="none" xmlns="http://www.w3.org/2000/svg">
<g clip-path="url(#clip0)">
<path d="M82.6684 68.0803C84.4284 66.1509 84.2911 63.16 82.3617 61.4C81.4852 60.6005 80.3402 60.1596 79.1539 60.1648H75.1962C73.8848 60.1648 72.8215 59.1015 72.8215 57.7901V55.4155C72.8164 51.0461 69.2754 47.5051 64.906 47.5C64.0317 47.5 63.3229 48.2088 63.3229 49.0831V61.0497C63.3231 61.7314 62.8868 62.3366 62.2401 62.5521L61.7398 62.7183V61.7479C61.7398 60.8736 61.031 60.1648 60.1567 60.1648H53.8243C52.95 60.1648 52.2412 60.8736 52.2412 61.7479V80.7451C52.2412 81.6193 52.95 82.3282 53.8243 82.3282H60.1567C61.031 82.3282 61.7398 81.6193 61.7398 80.7451V80.4047C64.0355 81.6569 66.6067 82.3179 69.2215 82.3282H79.1539C81.7654 82.3396 83.8919 80.2319 83.9036 77.6204C83.9089 76.4341 83.4681 75.2891 82.6684 74.4127C84.3156 72.6234 84.3156 69.8698 82.6684 68.0803ZM58.5736 79.162H55.4074V63.331H58.5736V79.162ZM80.737 71.2465C80.737 72.1207 80.0282 72.8296 79.1539 72.8296V75.9958C80.0282 75.9958 80.737 76.7046 80.737 77.5789C80.737 78.4531 80.0282 79.162 79.1539 79.162H69.2215C66.7206 79.1637 64.2753 78.4233 62.1957 77.0343L61.7398 76.7319V66.0555L63.2422 65.5552C65.1813 64.9085 66.4891 63.0937 66.4891 61.0497V50.9369C68.3853 51.6103 69.6529 53.4033 69.6553 55.4155V57.7901C69.6553 60.8503 72.136 63.331 75.1962 63.331H79.1539C80.0282 63.331 80.737 64.0398 80.737 64.9141C80.737 65.7883 80.0282 66.4972 79.1539 66.4972V69.6634C80.0282 69.6634 80.737 70.3722 80.737 71.2465Z" fill="#1B84FF"/>
<path d="M79.2545 43.5927C75.7442 41.9918 71.9307 41.1646 68.0725 41.1674C59.6413 41.1749 51.7028 45.1412 46.6341 51.8787L39.5767 49.5262V43.6545C39.7144 43.5468 39.8569 43.4502 39.993 43.3378C45.3706 38.8531 48.6346 32.3292 48.9993 25.3364H49.0753C49.9496 25.3364 50.6584 24.6276 50.6584 23.7533V22.1702C50.6584 9.9297 40.7355 0.00683594 28.495 0.00683594C16.2545 0.00683594 6.33162 9.9297 6.33162 22.1702V25.3364C6.33162 26.2107 7.04045 26.9195 7.91472 26.9195C7.97963 26.9134 8.04414 26.9035 8.10786 26.8894C8.85073 33.3097 12.0333 39.1986 16.997 43.3378C17.1315 43.4502 17.2756 43.5468 17.4133 43.6545V49.5262L4.24826 53.9145C3.64807 54.1148 3.22459 54.6532 3.17176 55.2839L0.00555861 93.2783C-0.0670661 94.1496 0.580421 94.9148 1.45172 94.9872C1.49506 94.9908 1.53859 94.9926 1.58232 94.9928H55.4077C56.2819 94.9958 56.9931 94.2895 56.9963 93.4152C56.9965 93.3695 56.9947 93.3238 56.9908 93.2783L56.929 92.5453C70.4469 98.7103 86.403 92.7497 92.5682 79.2318C98.7333 65.714 92.7724 49.7577 79.2545 43.5927ZM17.4133 91.8266H3.30315L6.2398 56.5868L17.4133 52.8633V91.8266ZM9.49782 22.1702C9.49782 11.6784 18.0032 3.17303 28.495 3.17303C38.9868 3.17303 47.4922 11.6784 47.4922 22.1702H42.7429C38.3735 22.1651 34.8325 18.6241 34.8274 14.2547C34.8282 13.3805 34.1199 12.671 33.2457 12.6702C33.1297 12.6702 33.0142 12.6827 32.9008 12.708L31.9509 12.9202C23.9612 14.6851 16.3552 17.8759 9.49782 22.3396V22.1702ZM36.4105 91.8266H20.5795V62.8891L26.19 61.0195L22.218 75.584C22.1155 75.9596 22.1549 76.3597 22.3288 76.708L27.0781 86.2066C27.469 86.9886 28.4198 87.3058 29.2021 86.9148C29.5086 86.7617 29.7571 86.5131 29.9103 86.2066L34.6596 76.708C34.8335 76.3597 34.8729 75.9596 34.7704 75.584L30.7984 61.0195L36.4105 62.8891V91.8266ZM20.5795 59.5504V56.3937L24.3679 58.2934L20.5795 59.5504ZM28.495 64.5973L31.5583 75.8294L28.495 81.9544L25.4317 75.8294L28.495 64.5973ZM36.4105 59.5504L32.6221 58.2839L36.4105 56.3937V59.5504ZM36.4105 52.8539L28.495 56.8116L20.5795 52.8539V45.6476C23.0416 46.8624 25.7495 47.4961 28.495 47.4998C31.2405 47.4961 33.9484 46.8624 36.4105 45.6476V52.8539ZM19.0249 40.9046C14.2992 36.9538 11.4444 31.2042 11.1537 25.0515C17.4786 20.9184 24.4765 17.9216 31.8322 16.1956C32.7801 21.4802 37.374 25.3289 42.7429 25.3364H45.8331C45.4694 31.3884 42.623 37.0217 37.9667 40.9046C32.4809 45.4778 24.5107 45.4778 19.0249 40.9046ZM39.5767 91.8266V52.8633L44.812 54.6048C37.5501 67.0495 41.4311 83.0089 53.5966 90.7295L53.6868 91.8266H39.5767ZM68.0725 91.8266C54.9577 91.8266 44.326 81.1949 44.326 68.0801C44.326 54.9653 54.9577 44.3336 68.0725 44.3336C81.1873 44.3336 91.8189 54.9653 91.8189 68.0801C91.8041 81.1889 81.1811 91.8117 68.0725 91.8266Z" fill="#1B84FF"/>
<path d="M56.9904 3.17319H53.8242V6.33939H56.9904V3.17319Z" fill="#1B84FF"/>
<path d="M63.3234 3.17319H60.1572V6.33939H63.3234V3.17319Z" fill="#1B84FF"/>
<path d="M69.6555 34.8352H66.4893V38.0014H69.6555V34.8352Z" fill="#1B84FF"/>
<path d="M69.6555 28.5028H66.4893V31.669H69.6555V28.5028Z" fill="#1B84FF"/>
<path d="M69.6555 22.1704H66.4893V25.3366H69.6555V22.1704Z" fill="#1B84FF"/>
<path d="M69.6555 15.838H66.4893V19.0042H69.6555V15.838Z" fill="#1B84FF"/>
<path d="M69.6555 9.50558H66.4893V12.6718H69.6555V9.50558Z" fill="#1B84FF"/>
<path d="M69.6555 3.17319H66.4893V6.33939H69.6555V3.17319Z" fill="#1B84FF"/>
<path d="M50.6584 3.17319H47.4922V6.33939H50.6584V3.17319Z" fill="#1B84FF"/>
</g>
<defs>
<clipPath id="clip0">
<rect width="95" height="95" fill="white"/>
</clipPath>
</defs>
</svg>
