<svg width="95" height="95" viewBox="0 0 95 95" fill="none" xmlns="http://www.w3.org/2000/svg">
<g clip-path="url(#clip0)">
<path d="M92.8923 16.0201L48.5748 0.186795C47.875 -0.0602102 47.1117 -0.0602102 46.412 0.186795L2.10554 16.0201C0.849768 16.4728 0.0126953 17.6643 0.0126953 18.9992C0.0126953 20.334 0.849768 21.5256 2.10554 21.9782L23.7497 29.7112V39.5833C23.7497 45.7393 45.0693 45.9166 47.4997 45.9166C49.9301 45.9166 71.2497 45.7393 71.2497 39.5833V29.7112L75.9997 28.025V31.6666C75.9997 33.4155 77.4175 34.8333 79.1664 34.8333H82.333C84.0819 34.8333 85.4997 33.4155 85.4997 31.6666V26.9166C85.495 26.1834 85.3182 25.4616 84.9836 24.8092L92.9002 21.9782C94.156 21.5256 94.9931 20.334 94.9931 18.9992C94.9931 17.6643 94.156 16.4728 92.9002 16.0201H92.8923ZM68.083 36.1C62.0521 33.3545 49.3443 33.25 47.4997 33.25C45.6551 33.25 32.9473 33.3545 26.9164 36.1V22.306C27.8664 21.0868 35.3334 19 47.4997 19C59.666 19 67.133 21.0868 68.083 22.306V36.1ZM47.4997 42.75C35.783 42.75 28.4253 40.8151 27.0494 39.5833C28.4253 38.3515 35.7862 36.4166 47.4997 36.4166C59.2132 36.4166 66.5741 38.3515 67.9501 39.5833C66.5741 40.8151 59.2164 42.75 47.4997 42.75ZM76.7423 24.3912L71.2497 26.3498V22.1666C71.2497 16.0106 49.9301 15.8333 47.4997 15.8333C45.0693 15.8333 23.7497 16.0106 23.7497 22.1666V26.3482L3.16638 19L47.5219 3.16663L79.1664 14.4748V22.458C78.1652 22.8137 77.3119 23.4943 76.7423 24.3912ZM82.333 31.6666H79.1664V26.9166C79.1664 26.0422 79.8753 25.3333 80.7497 25.3333C81.6242 25.3333 82.333 26.0422 82.333 26.9166V31.6666ZM82.333 22.3946V15.6069L91.833 19L82.333 22.3946Z" fill="#1B84FF"/>
<path d="M90.25 49.0832C90.155 49.0829 90.0601 49.0914 89.9666 49.1086C75.9182 51.2927 61.7169 52.3432 47.5 52.2499C33.2831 52.3432 19.0818 51.2927 5.03342 49.1086C4.93977 49.0926 4.845 49.0841 4.75 49.0832C3.64167 49.0832 0 50.3388 0 66.4999C0 82.661 3.64167 83.9166 4.75 83.9166C4.84508 83.9145 4.93984 83.905 5.03342 83.8881C15.8281 82.1782 26.7242 81.1849 37.6501 80.9146L34.5594 88.3277C34.0846 89.5147 34.3733 90.871 35.2904 91.7617C36.2074 92.6524 37.5715 92.9014 38.7442 92.3921L39.9554 91.8744L40.4795 93.0793C40.9745 94.2476 42.1224 95.0047 43.3913 94.9999H43.4308C44.7092 94.9899 45.8552 94.2096 46.3331 93.0239L49.0833 86.4404L51.8241 92.9986C52.2977 94.1955 53.4487 94.9866 54.7358 94.9999H54.7833C56.0436 95.0051 57.1852 94.2573 57.684 93.0999L58.2128 91.8855L59.4051 92.3969C60.5828 92.9168 61.9583 92.6691 62.8807 91.7711C63.8031 90.873 64.0875 89.5047 63.5993 88.3135L60.5688 81.046C70.4197 81.3948 80.24 82.3465 89.9745 83.896C90.0655 83.911 90.1577 83.9179 90.25 83.9166C91.3583 83.9166 95 82.661 95 66.4999C95 50.3388 91.3583 49.0832 90.25 49.0832ZM52.5667 55.3691C53.2242 57.7868 53.6071 60.2708 53.7083 62.7743C50.1182 61.105 45.9076 61.4963 42.6867 63.7987C42.6057 60.9554 42.2413 58.1273 41.5989 55.3564C43.5169 55.3965 45.4839 55.4166 47.5 55.4166C49.2306 55.4166 50.9105 55.3976 52.5667 55.3691ZM49.0833 80.7499C44.7111 80.7499 41.1667 77.2055 41.1667 72.8332C41.1667 68.461 44.7111 64.9166 49.0833 64.9166C53.4556 64.9166 57 68.461 57 72.8332C56.9948 77.2033 53.4534 80.7447 49.0833 80.7499ZM4.75 53.0416C5.96318 57.4203 6.49717 61.9592 6.33333 66.4999C6.49717 71.0406 5.96318 75.5795 4.75 79.9582C3.53683 75.5795 3.00283 71.0406 3.16667 66.4999C3.00283 61.9592 3.53683 57.4203 4.75 53.0416ZM7.94833 80.2274C8.81442 77.7162 9.5 73.5141 9.5 66.4999C9.5 59.4857 8.81442 55.2836 7.94675 52.7692C18.0082 54.1588 28.1383 54.9955 38.2913 55.2756C39.241 58.9389 39.6758 62.7166 39.5833 66.4999C39.5833 66.7295 39.5833 66.948 39.5738 67.1681C37.6738 70.3214 37.4823 74.2176 39.064 77.5421L38.9943 77.7099C28.6064 77.9645 18.2412 78.8061 7.94833 80.2306V80.2274ZM43.3944 91.8332L42.2386 89.1732C41.891 88.3745 40.9634 88.0066 40.1628 88.3499L37.4981 89.5279L41.211 80.6264C42.7354 82.171 44.68 83.2337 46.8033 83.6822L43.3944 91.8332ZM58.0038 88.3499C57.2032 88.0066 56.2757 88.3745 55.9281 89.1732L54.7564 91.8063L51.3618 83.6791C53.4867 83.2303 55.433 82.1672 56.9588 80.6216L60.6638 89.4883L58.0038 88.3499ZM89.9333 80.6707C79.7609 79.1051 69.5035 78.1534 59.2167 77.8207L59.1043 77.5484C61.0955 73.3525 60.2418 68.3585 56.9699 65.0622C56.9577 61.7786 56.5785 58.5067 55.8394 55.3073C67.2565 55.0517 78.645 54.0563 89.9333 52.3275C90.668 53.5751 91.8333 58.5104 91.8333 66.4999C91.8333 74.4894 90.6601 79.4231 89.9333 80.6707Z" fill="#1B84FF"/>
</g>
<defs>
<clipPath id="clip0">
<rect width="95" height="95" fill="white"/>
</clipPath>
</defs>
</svg>
