<?xml version="1.0" encoding="UTF-8"?>
<svg xmlns="http://www.w3.org/2000/svg" xmlns:xlink="http://www.w3.org/1999/xlink" width="30px" height="30px" viewBox="0 0 30 30" version="1.1">
<g id="surface1">
<path style=" stroke:none;" d="M 29.539062 16.339844 C 29.460938 16.203125 28.964844 15.097656 26.578125 12.828125 C 24.082031 10.449219 24.417969 10.835938 27.425781 6.726562 C 29.257812 4.226562 29.988281 2.695312 29.757812 2.042969 C 29.542969 1.421875 28.195312 1.585938 28.195312 1.585938 L 23.714844 1.613281 C 23.714844 1.613281 23.382812 1.566406 23.136719 1.714844 C 22.894531 1.867188 22.742188 2.210938 22.742188 2.210938 C 22.742188 2.210938 22.03125 4.148438 21.085938 5.792969 C 19.089844 9.269531 18.292969 9.453125 17.964844 9.234375 C 17.207031 8.734375 17.398438 7.214844 17.398438 6.136719 C 17.398438 2.769531 17.894531 1.363281 16.425781 1.003906 C 15.9375 0.882812 15.582031 0.800781 14.335938 0.789062 C 12.734375 0.769531 11.382812 0.792969 10.617188 1.179688 C 10.105469 1.433594 9.710938 2.003906 9.953125 2.039062 C 10.25 2.078125 10.917969 2.222656 11.273438 2.71875 C 11.734375 3.359375 11.71875 4.800781 11.71875 4.800781 C 11.71875 4.800781 11.984375 8.765625 11.101562 9.257812 C 10.496094 9.59375 9.667969 8.90625 7.886719 5.75 C 6.976562 4.136719 6.289062 2.351562 6.289062 2.351562 C 6.289062 2.351562 6.15625 2.019531 5.917969 1.839844 C 5.632812 1.625 5.230469 1.554688 5.230469 1.554688 L 0.972656 1.582031 C 0.972656 1.582031 0.332031 1.601562 0.0976562 1.886719 C -0.113281 2.140625 0.0820312 2.664062 0.0820312 2.664062 C 0.0820312 2.664062 3.414062 10.664062 7.191406 14.695312 C 10.652344 18.394531 14.582031 18.148438 14.582031 18.148438 L 16.363281 18.148438 C 16.363281 18.148438 16.902344 18.089844 17.175781 17.785156 C 17.429688 17.507812 17.421875 16.984375 17.421875 16.984375 C 17.421875 16.984375 17.386719 14.53125 18.496094 14.171875 C 19.589844 13.816406 20.996094 16.539062 22.484375 17.589844 C 23.609375 18.382812 24.464844 18.207031 24.464844 18.207031 L 28.445312 18.148438 C 28.445312 18.148438 30.527344 18.019531 29.539062 16.339844 Z M 29.539062 16.339844 "/>
</g>
</svg>
