<?xml version="1.0" standalone="no"?>
<!DOCTYPE svg PUBLIC "-//W3C//DTD SVG 20010904//EN"
 "http://www.w3.org/TR/2001/REC-SVG-20010904/DTD/svg10.dtd">
<svg version="1.0" xmlns="http://www.w3.org/2000/svg"
 width="700.000000pt" height="700.000000pt" viewBox="0 0 700.000000 700.000000"
 preserveAspectRatio="xMidYMid meet">
<metadata>
Created by potrace 1.11, written by Peter Selinger 2001-2013
</metadata>
<g transform="translate(0.000000,700.000000) scale(0.100000,-0.100000)"
fill="#000000" stroke="none">
<path d="M3085 6980 c-44 -22 -90 -83 -105 -142 -9 -32 -16 -38 -58 -52 -26
-8 -74 -20 -107 -26 -170 -30 -574 -152 -710 -214 -170 -79 -208 -208 -135
-456 32 -108 44 -263 27 -333 -10 -39 -66 -97 -182 -190 -120 -96 -314 -290
-408 -407 -131 -164 -230 -321 -209 -334 14 -9 39 20 135 155 159 221 288 361
487 526 143 119 186 165 216 228 33 69 27 173 -20 371 -20 84 -36 175 -36 203
0 79 40 145 110 181 117 60 659 220 843 249 47 8 47 8 83 -36 19 -24 49 -50
66 -59 69 -36 196 -5 242 58 21 30 32 116 22 171 -12 65 -101 126 -181 127
-22 0 -58 -9 -80 -20z m155 -51 c51 -29 74 -76 67 -138 -4 -39 -12 -52 -49
-83 -34 -31 -51 -38 -84 -38 -68 0 -140 62 -148 127 -7 51 31 114 83 140 50
26 74 24 131 -8z"/>
<path d="M3703 6806 c-22 -7 -55 -23 -71 -35 -43 -30 -96 -115 -120 -191 -11
-36 -34 -110 -51 -165 -69 -218 -127 -264 -376 -300 -298 -43 -634 -149 -842
-267 -128 -72 -81 -86 63 -17 200 94 384 158 587 203 119 26 139 30 282 50
199 29 271 105 350 376 62 209 98 269 181 297 37 13 243 11 324 -2 106 -18
256 -50 334 -72 95 -26 306 -101 317 -112 4 -3 10 -29 13 -58 11 -96 46 -155
110 -184 56 -25 103 -24 164 7 43 21 56 34 78 79 20 41 25 65 22 97 -7 64 -36
116 -81 146 -34 22 -51 27 -103 26 -55 -1 -68 -5 -114 -38 l-53 -38 -81 32
c-211 84 -273 102 -506 141 -210 36 -367 45 -427 25z m1236 -179 c54 -28 81
-74 81 -141 0 -43 -4 -53 -35 -82 -50 -47 -97 -58 -149 -35 -69 31 -91 63 -91
131 0 52 4 63 30 90 30 32 77 58 105 59 8 0 35 -10 59 -22z"/>
<path d="M1498 6410 c-73 -39 -110 -118 -101 -216 l5 -49 -81 -63 c-208 -161
-492 -483 -572 -649 -29 -60 -34 -164 -11 -214 20 -43 77 -117 146 -189 208
-218 228 -298 131 -520 -127 -292 -213 -709 -196 -947 1 -11 29 -20 32 -10 0
1 2 34 5 72 2 39 9 104 14 145 6 41 13 95 16 120 21 168 80 374 172 605 50
125 56 148 56 215 0 110 -37 177 -196 353 -186 204 -193 258 -59 460 73 108
194 252 296 351 106 103 205 190 239 210 l33 20 66 -29 c83 -35 141 -32 195
12 57 46 75 77 80 137 12 149 -140 254 -270 186z m169 -52 c59 -35 74 -151 27
-202 -29 -31 -81 -56 -115 -56 -33 0 -94 38 -113 71 -24 41 -23 101 3 142 27
45 44 58 84 67 40 9 73 3 114 -22z"/>
<path d="M5165 6271 c-33 -20 -103 -81 -210 -182 -95 -90 -122 -112 -175 -139
-73 -37 -120 -31 -340 44 -253 87 -383 119 -560 141 -30 4 -62 9 -71 10 -84
16 -263 27 -286 18 -20 -8 -16 -43 5 -44 9 0 58 -2 107 -4 272 -11 580 -79
849 -186 117 -47 184 -55 270 -33 78 19 114 46 305 226 184 174 239 171 518
-27 139 -98 374 -322 456 -433 l46 -62 -25 -55 c-58 -125 -12 -240 107 -273
151 -41 279 91 229 237 -31 94 -78 123 -196 122 l-74 0 -69 83 c-147 176 -300
316 -487 448 -161 113 -196 128 -290 128 -59 0 -87 -5 -109 -19z m1124 -700
c45 -31 64 -67 65 -120 1 -58 -22 -97 -75 -123 -118 -61 -244 56 -190 176 21
48 38 64 88 81 43 15 77 11 112 -14z"/>
<path d="M4810 5770 c0 -5 35 -33 77 -62 109 -75 261 -190 308 -233 111 -101
227 -221 313 -324 181 -215 202 -227 375 -218 78 4 144 15 217 35 120 33 230
41 282 19 52 -22 97 -82 159 -212 65 -137 126 -307 169 -469 30 -116 36 -145
46 -238 l7 -56 -39 -25 c-22 -13 -49 -35 -61 -48 -81 -88 -41 -256 70 -298
129 -49 274 59 259 194 -8 76 -45 123 -128 160 -51 23 -52 24 -59 76 -37 294
-222 795 -333 907 -49 48 -115 75 -182 75 -30 -1 -129 -20 -220 -43 -194 -49
-264 -53 -330 -20 -47 24 -101 74 -160 150 -101 129 -298 327 -430 432 -195
156 -340 240 -340 198z m2070 -1838 c39 -30 70 -82 70 -120 0 -128 -185 -186
-257 -79 -54 80 -23 182 64 212 46 16 90 11 123 -13z"/>
<path d="M1862 5260 c-179 -81 -175 -331 7 -407 36 -15 116 -19 151 -8 14 5
22 1 26 -12 15 -46 79 -183 226 -480 l159 -323 -168 -170 -168 -171 -45 20
c-99 45 -221 12 -279 -76 -127 -191 75 -417 287 -318 28 13 52 29 52 35 0 29
39 -2 147 -117 65 -69 135 -144 156 -166 20 -23 36 -44 35 -48 -2 -4 -95 -195
-208 -424 l-205 -416 -38 6 c-137 20 -258 -82 -259 -217 -1 -125 96 -221 222
-222 125 0 223 97 223 219 0 52 1 53 41 72 23 10 122 61 221 112 407 211 521
269 541 275 23 7 31 0 233 -207 l95 -96 -25 -48 c-80 -158 40 -341 214 -327
157 12 253 179 183 317 l-23 47 178 175 c154 152 182 175 201 170 13 -4 68
-31 123 -60 240 -125 355 -187 435 -229 47 -25 115 -61 153 -79 49 -23 65 -36
61 -47 -4 -8 -8 -38 -9 -66 -9 -150 137 -262 284 -218 157 46 213 234 105 354
-57 63 -145 92 -219 71 -31 -8 -35 -7 -41 12 -3 12 -54 119 -112 237 -230 471
-263 542 -257 558 7 23 47 67 193 215 89 90 131 126 142 121 90 -39 153 -43
215 -15 180 83 178 330 -4 407 -45 19 -143 15 -190 -9 l-34 -17 -121 123
c-192 196 -208 215 -200 239 3 11 69 149 146 307 128 261 212 445 220 480 2 7
-2 15 -8 18 -7 2 -58 -87 -119 -209 -148 -292 -267 -521 -285 -547 -15 -21
-17 -20 -119 79 l-104 102 240 241 c272 275 346 355 337 368 -11 19 -55 -20
-328 -290 -153 -152 -283 -275 -289 -273 -6 2 -54 49 -108 105 -86 89 -96 102
-81 113 9 6 152 79 317 163 374 188 445 227 445 243 0 24 -41 6 -540 -241
-146 -72 -270 -131 -275 -131 -6 0 -88 76 -183 170 l-172 170 19 37 c42 84 35
170 -21 237 -113 137 -331 90 -379 -82 -13 -45 -9 -72 26 -177 5 -16 -23 -49
-147 -174 -84 -85 -163 -160 -175 -168 -21 -14 -38 -7 -260 102 -363 179 -519
254 -547 261 -20 5 -24 10 -17 23 17 31 21 92 9 139 -15 59 -88 135 -144 151
-58 16 -114 13 -162 -9z m318 -337 c13 -10 184 -99 379 -198 195 -99 356 -185
358 -191 4 -11 -160 -179 -191 -196 -14 -8 -66 38 -290 262 -150 149 -283 278
-295 286 -17 12 -19 19 -11 35 13 23 19 24 50 2z m-58 -60 c17 -28 94 -109
380 -401 80 -83 151 -159 158 -171 10 -19 1 -31 -88 -122 l-99 -101 -20 34
c-12 18 -96 184 -188 368 -93 184 -177 348 -188 363 -19 27 -19 29 -1 42 26
19 27 19 46 -12z m1700 -177 c71 -72 127 -134 125 -140 -2 -6 -30 -23 -62 -39
-42 -21 -63 -27 -74 -20 -20 13 -202 373 -195 385 7 12 37 -16 206 -186z
m-462 174 c0 -8 -89 -192 -163 -338 l-27 -52 -59 30 c-33 16 -62 34 -66 39
-12 21 27 69 158 199 125 122 157 147 157 122z m308 -213 c51 -104 89 -193 86
-199 -8 -13 -244 -128 -263 -128 -22 0 -271 122 -271 132 0 5 41 92 90 193 71
144 96 186 113 190 46 9 63 10 107 5 l45 -5 93 -188z m459 -267 c45 -47 83
-91 83 -99 0 -8 -46 -59 -101 -115 l-102 -101 -76 156 c-42 86 -81 168 -88
183 -12 27 -11 28 70 67 l81 39 25 -23 c13 -12 62 -60 108 -107z m-1040 77
c29 -17 53 -37 53 -44 0 -16 -148 -303 -166 -322 -11 -12 -26 -2 -99 70 -107
103 -112 112 -89 147 26 41 114 131 159 164 46 34 63 32 142 -15z m222 -111
c58 -29 106 -57 108 -63 3 -9 -292 -161 -344 -177 -20 -6 -21 -5 -14 22 12 39
131 272 139 272 4 -1 54 -25 111 -54z m537 -61 c29 -55 60 -119 68 -143 15
-43 15 -43 -7 -36 -64 19 -337 167 -337 183 0 6 141 80 180 94 32 12 44 -1 96
-98z m97 -264 c7 -7 -60 -81 -222 -244 l-233 -235 -182 183 c-225 227 -268
274 -264 294 2 10 91 60 226 127 l222 111 221 -113 c122 -62 226 -117 232
-123z m508 -76 c-25 -47 -44 -71 -57 -73 -20 -3 -78 23 -263 117 l-84 43 108
108 109 109 112 -117 112 -117 -37 -70z m-1624 193 c51 -51 93 -98 93 -104 0
-6 -76 -50 -169 -98 l-170 -87 -27 47 c-37 63 -54 115 -44 135 20 36 186 199
204 199 11 0 60 -40 113 -92z m-346 -210 c41 -73 49 -96 36 -106 -35 -28 -376
-186 -384 -178 -9 9 298 326 314 326 5 0 20 -19 34 -42z m757 -201 c111 -113
202 -212 202 -219 0 -8 -94 -107 -209 -222 -170 -169 -213 -207 -232 -204 -16
2 -37 22 -61 59 -39 59 -188 351 -188 369 0 11 169 351 207 418 l25 42 26 -19
c15 -10 118 -111 230 -224z m841 93 c80 -154 141 -293 141 -320 0 -19 -186
-398 -213 -435 -14 -18 -18 -16 -88 50 -109 105 -389 389 -389 396 0 15 462
461 470 453 5 -5 40 -70 79 -144z m558 49 c127 -124 216 -220 209 -226 -5 -6
-291 129 -349 165 -34 20 -38 27 -32 50 9 37 55 114 65 110 5 -2 53 -46 107
-99z m-1727 82 c0 -11 -168 -341 -183 -359 -8 -10 -16 -4 -37 30 -32 52 -80
160 -80 179 0 8 62 45 143 86 148 75 157 79 157 64z m1335 -75 c66 -35 121
-70 123 -77 4 -23 -92 -204 -108 -204 -9 0 -49 67 -102 174 -49 96 -88 178
-88 182 0 13 47 -7 175 -75z m-1621 -235 l68 -133 -46 -94 c-26 -52 -55 -98
-66 -104 -16 -9 -43 3 -152 62 -248 134 -241 129 -250 173 -6 28 -5 42 5 52
19 19 350 183 362 179 6 -1 41 -62 79 -135z m2013 42 c161 -79 179 -90 173
-108 -5 -11 -6 -50 -4 -87 l4 -66 -83 -43 c-222 -116 -281 -142 -296 -132 -9
5 -45 66 -81 134 l-66 124 50 100 c70 141 86 165 106 165 10 0 99 -39 197 -87z
m-960 -400 c196 -195 273 -278 273 -291 0 -9 -119 -76 -289 -163 l-104 -53
-81 42 c-45 23 -133 69 -196 103 -63 33 -136 72 -162 86 -27 14 -48 29 -48 33
0 14 404 420 417 420 6 0 92 -80 190 -177z m-1452 149 c17 -10 57 -33 90 -51
182 -100 225 -125 230 -139 3 -8 -11 -48 -32 -89 l-36 -76 -111 114 c-170 175
-205 216 -199 239 7 25 19 25 58 2z m2131 -237 c-25 -20 -234 -128 -269 -139
-15 -5 -17 -2 -11 17 9 29 164 348 177 365 8 10 25 -15 69 -105 l59 -118 -25
-20z m-1561 103 c35 -73 60 -135 55 -136 -15 -6 -201 89 -207 105 -10 26 55
163 77 163 5 0 39 -60 75 -132z m2055 73 c0 -8 -229 -237 -290 -290 -19 -16
-38 -27 -42 -25 -12 7 -58 101 -58 116 0 13 37 35 248 144 124 64 142 71 142
55z m-1977 -291 c81 -52 77 -76 -28 -180 -113 -112 -100 -113 -222 14 -57 60
-103 117 -103 128 0 20 41 107 72 151 l19 27 107 -55 c59 -30 129 -69 155 -85z
m1586 -20 l32 -61 -113 -110 c-62 -60 -117 -109 -122 -109 -12 0 -162 153
-176 180 -9 17 -5 23 31 46 23 14 95 52 162 85 138 68 132 69 186 -31z m-1239
-162 c186 -97 258 -137 265 -148 6 -9 -170 -102 -237 -126 -34 -12 -44 -12
-54 -2 -15 16 -184 353 -184 367 0 15 34 0 210 -91z m-648 4 c35 -38 77 -85
92 -105 l28 -37 -27 -32 c-15 -18 -137 -145 -270 -283 -134 -137 -253 -262
-265 -277 -24 -32 -28 -33 -53 -14 -18 14 -17 16 6 53 29 45 125 230 262 503
118 233 133 260 150 260 7 0 42 -31 77 -68z m494 -147 c41 -82 74 -159 74
-171 0 -16 -15 -29 -61 -54 l-61 -32 -116 122 c-64 67 -119 127 -120 132 -2 5
38 50 89 99 87 85 94 90 107 73 8 -11 47 -86 88 -169z m1024 114 c75 -77 120
-128 120 -136 0 -4 -43 -53 -95 -107 l-94 -100 -63 33 c-35 17 -74 41 -88 51
l-25 19 65 127 c36 70 73 140 83 156 21 34 22 34 97 -43z m480 -44 c29 -55 71
-136 95 -180 23 -44 71 -136 106 -205 34 -69 82 -159 106 -199 l44 -75 -22
-17 c-22 -16 -23 -16 -48 15 -14 17 -30 36 -36 42 -5 7 -126 129 -267 271
l-257 260 105 103 c62 62 108 100 113 94 5 -5 33 -54 61 -109z m-651 46 c-22
-62 -114 -206 -134 -209 -11 -1 -55 18 -99 42 l-78 43 143 76 c163 86 183 92
168 48z m-270 -199 c47 -27 94 -52 105 -55 26 -10 19 -30 -88 -245 l-93 -187
-84 0 -84 0 -89 180 -89 179 23 16 c33 22 293 159 304 160 4 0 47 -22 95 -48z
m-785 -83 c53 -56 96 -105 96 -108 0 -7 -33 -27 -170 -98 -58 -31 -118 -63
-135 -73 -16 -10 -133 -70 -258 -134 l-229 -116 -18 22 c-11 13 -19 26 -20 30
0 6 152 158 455 451 119 116 153 144 166 137 9 -5 60 -55 113 -111z m1648
-144 c134 -132 267 -261 296 -286 46 -39 51 -48 38 -58 -13 -11 -20 -9 -43 6
-27 19 -80 48 -323 176 -327 172 -396 209 -404 217 -11 11 168 194 183 188 5
-1 119 -111 253 -243z m-628 100 c106 -50 110 -41 -80 -229 -91 -91 -170 -166
-175 -166 -5 0 0 22 11 49 26 66 179 371 186 371 3 0 29 -11 58 -25z m-622
-183 c31 -59 66 -131 78 -161 25 -65 22 -63 -85 45 -115 116 -185 194 -185
208 0 7 21 25 48 39 l47 27 21 -25 c11 -14 45 -74 76 -133z"/>
<path d="M4935 5251 c-101 -46 -151 -169 -110 -269 71 -170 309 -183 391 -20
91 179 -97 373 -281 289z"/>
<path d="M369 5082 c-63 -41 -82 -74 -85 -151 -3 -69 10 -106 52 -152 l24 -25
-39 -105 c-91 -244 -139 -494 -145 -758 -2 -64 1 -134 6 -157 19 -91 140 -170
340 -220 123 -31 220 -76 270 -126 39 -39 70 -118 82 -212 13 -97 38 -213 67
-320 76 -277 229 -626 275 -626 20 0 15 15 -56 170 -119 259 -219 587 -245
800 -9 78 -20 115 -49 164 -54 93 -125 134 -342 197 -212 62 -249 84 -286 167
-55 123 10 604 118 881 42 105 56 121 107 121 107 0 204 110 190 214 -5 36
-35 96 -60 118 -59 54 -156 63 -224 20z m189 -52 c18 -13 34 -32 38 -42 10
-32 6 -108 -7 -140 -24 -59 -142 -83 -204 -42 -81 53 -70 193 18 238 44 23
114 16 155 -14z"/>
<path d="M5750 4824 c0 -9 29 -78 64 -153 86 -182 111 -245 156 -382 35 -105
89 -332 105 -434 22 -147 72 -223 184 -279 25 -13 111 -42 191 -65 80 -23 155
-46 168 -51 12 -6 34 -15 50 -22 75 -33 120 -122 108 -216 -4 -26 -9 -67 -12
-92 -19 -156 -73 -400 -129 -585 -45 -151 -71 -205 -99 -205 -29 0 -117 -43
-139 -68 -24 -26 -45 -99 -41 -137 6 -55 14 -74 46 -110 80 -92 184 -91 282 2
l38 37 -4 89 -5 89 -48 48 -47 48 36 109 c33 101 98 340 110 408 2 17 12 68
21 115 24 131 30 187 30 285 0 76 -4 96 -23 130 -43 74 -116 112 -332 171
-151 42 -214 70 -259 115 -48 47 -67 96 -91 234 -26 143 -53 264 -82 360 -47
159 -146 389 -221 517 -29 48 -57 69 -57 42z m870 -2564 c109 -78 57 -250 -75
-250 -75 0 -137 51 -149 121 -7 47 41 129 89 150 32 14 101 3 135 -21z"/>
<path d="M6116 3502 c-8 -13 -14 -57 -21 -157 -3 -49 -8 -108 -11 -130 -14
-118 -14 -113 -39 -260 -12 -63 -56 -215 -96 -325 -72 -201 -81 -233 -81 -296
0 -100 50 -181 218 -354 120 -124 154 -178 154 -244 0 -128 -259 -471 -547
-723 -53 -46 -100 -83 -106 -83 -6 0 -19 8 -30 17 -15 15 -38 18 -116 18 -95
0 -98 -1 -125 -30 -51 -54 -59 -73 -59 -140 0 -74 19 -111 87 -163 23 -18 42
-22 97 -22 61 0 72 3 111 33 58 44 68 68 68 167 l1 85 66 50 c132 101 327 311
451 486 199 281 194 364 -40 608 -88 92 -149 172 -168 220 -25 63 -15 126 54
331 69 209 96 306 120 440 28 151 32 193 41 367 3 69 1 94 -10 103 -7 6 -16 7
-19 2z m-595 -2595 c35 -28 70 -95 64 -125 -6 -33 -42 -88 -72 -112 -67 -53
-195 4 -210 93 -7 48 1 79 34 118 52 61 126 72 184 26z"/>
<path d="M146 3378 c-140 -30 -192 -206 -93 -315 21 -23 54 -42 97 -56 61 -22
65 -24 73 -62 40 -191 125 -487 186 -655 93 -253 159 -324 300 -322 75 1 62
-2 241 45 160 42 219 49 282 32 71 -18 120 -58 212 -170 150 -181 330 -348
524 -485 181 -128 242 -157 242 -114 0 7 -13 20 -29 29 -42 21 -181 117 -291
200 -110 83 -319 287 -405 396 -112 140 -182 187 -292 196 -70 5 -119 -3 -303
-52 -102 -27 -235 -34 -272 -14 -28 15 -63 55 -92 104 -43 72 -183 480 -211
615 -2 8 -15 63 -29 121 -14 59 -26 113 -26 121 0 8 18 31 40 53 73 71 91 151
52 238 -31 71 -123 113 -206 95z m98 -52 c68 -28 107 -128 74 -189 -16 -32
-68 -75 -96 -80 -53 -10 -128 22 -158 68 -41 62 -16 153 53 193 44 25 80 28
127 8z"/>
<path d="M5778 2153 c-9 -10 -37 -49 -63 -88 -133 -194 -348 -425 -530 -570
-208 -165 -237 -205 -241 -343 -1 -61 7 -122 32 -243 19 -88 34 -183 34 -210
0 -102 -53 -159 -222 -238 -234 -110 -513 -191 -711 -206 l-74 -6 -12 29 c-27
66 -115 122 -188 122 -95 -1 -173 -94 -173 -204 0 -53 26 -102 73 -140 47 -37
135 -48 185 -22 42 21 90 74 104 113 12 33 38 48 105 59 70 12 140 24 161 29
12 3 32 7 43 10 173 38 372 108 555 196 88 43 159 103 180 155 25 59 18 187
-18 330 -38 158 -42 260 -13 319 22 44 81 107 164 176 227 185 378 338 518
524 90 120 134 192 127 209 -8 21 -17 20 -36 -1z m-1882 -1828 c26 -17 53 -63
60 -102 7 -35 -28 -106 -65 -132 -66 -47 -175 -15 -206 61 -20 50 -19 63 6
116 36 74 136 102 205 57z"/>
<path d="M756 1810 c-39 -12 -75 -47 -97 -95 -46 -99 0 -223 95 -255 20 -6 66
-10 102 -8 l66 4 58 -76 c156 -203 481 -489 660 -580 60 -31 159 -31 217 -2
48 25 140 98 227 179 141 133 179 152 295 148 61 -3 90 -10 151 -38 242 -112
603 -194 882 -201 92 -3 112 2 99 22 -5 8 -40 14 -97 17 -270 12 -545 76 -861
201 -131 51 -205 61 -284 38 -71 -21 -97 -41 -313 -237 -181 -164 -250 -152
-566 101 -153 123 -359 340 -406 428 -17 31 -17 34 4 81 26 61 31 97 20 147
-18 81 -72 122 -170 131 -29 2 -66 0 -82 -5z m160 -66 c54 -42 65 -136 23
-195 -22 -32 -76 -59 -117 -59 -59 0 -130 69 -136 132 -6 64 32 119 101 144
46 16 87 9 129 -22z"/>
<path d="M4730 1207 c-105 -53 -240 -108 -385 -157 -104 -35 -198 -57 -475
-111 -139 -27 -165 -37 -216 -86 -52 -51 -92 -137 -143 -308 -77 -257 -114
-296 -271 -289 -222 11 -797 155 -864 217 -13 12 -29 43 -36 71 -15 67 -44
105 -97 128 -49 22 -132 23 -173 2 -86 -42 -124 -163 -79 -254 22 -45 44 -64
103 -90 42 -19 53 -20 97 -10 34 8 64 26 98 56 l49 44 163 -50 c214 -66 460
-126 674 -165 190 -35 305 54 369 285 10 36 30 99 44 140 68 203 112 240 327
274 116 19 163 26 180 30 194 40 430 123 627 221 98 49 131 72 122 86 -9 15
-27 10 -114 -34z m-2522 -572 c39 -16 68 -48 88 -95 22 -51 -32 -146 -95 -168
-68 -23 -141 12 -173 85 -32 73 -6 141 67 174 49 23 64 23 113 4z"/>
</g>
</svg>
