<svg width="103" height="95" viewBox="0 0 103 95" fill="none" xmlns="http://www.w3.org/2000/svg">
<path d="M94.9 0H7.5C3.3644 0 0 3.3644 0 7.5V73.5C0 77.6356 3.3644 81 7.5 81H39.5114L37.706 87.3188C36.981 89.8564 34.139 92 31.5 92H20.2C19.3716 92 18.7 92.6714 18.7 93.5C18.7 94.3286 19.3716 95 20.2 95H82.2C83.0284 95 83.7 94.3286 83.7 93.5C83.7 92.6714 83.0284 92 82.2 92H70.9C68.261 92 65.419 89.8562 64.694 87.3188L62.8886 81H94.9C99.0356 81 102.4 77.6356 102.4 73.5V7.5C102.4 3.3644 99.0356 0 94.9 0ZM7.5 3H94.9C97.3814 3 99.4 5.0188 99.4 7.5V60H3V7.5C3 5.0188 5.0186 3 7.5 3ZM61.8094 88.143C62.221 89.584 63.0392 90.9078 64.1118 92H38.2882C39.3608 90.9078 40.179 89.5838 40.5906 88.143L42.6314 81H59.7684L61.8094 88.143ZM94.9 78H7.5C5.0186 78 3 75.9812 3 73.5V63H99.4V73.5C99.4 75.9812 97.3814 78 94.9 78Z" fill="#1B84FF"/>
<path d="M7.5 57H94.9C95.7284 57 96.4 56.3286 96.4 55.5V7.5C96.4 6.6714 95.7284 6 94.9 6H7.5C6.6716 6 6 6.6714 6 7.5V28.5C6 29.3286 6.6716 30 7.5 30C8.3284 30 9 29.3286 9 28.5V9H93.4V54H9V34.5C9 33.6714 8.3284 33 7.5 33C6.6716 33 6 33.6714 6 34.5V55.5C6 56.3286 6.6716 57 7.5 57Z" fill="#1B84FF"/>
<path d="M51.2002 66C48.7188 66 46.7002 68.0188 46.7002 70.5C46.7002 72.9812 48.7188 75 51.2002 75C53.6816 75 55.7002 72.9812 55.7002 70.5C55.7002 68.0188 53.6816 66 51.2002 66ZM51.2002 72C50.373 72 49.7002 71.3272 49.7002 70.5C49.7002 69.6728 50.373 69 51.2002 69C52.0274 69 52.7002 69.6728 52.7002 70.5C52.7002 71.3272 52.0274 72 51.2002 72Z" fill="#1B84FF"/>
</svg>
