<svg width="130" height="95" viewBox="0 0 130 95" fill="none" xmlns="http://www.w3.org/2000/svg">
<path d="M123.623 69.7524L115.794 67.5156C115.456 67.419 115.22 67.1061 115.22 66.7545V64.1414C115.857 63.7001 116.464 63.2062 117.032 62.6549C119.785 59.9839 121.3 56.4012 121.3 52.5665V48.9605L122.057 47.4468C122.888 45.785 123.327 43.9245 123.327 42.0668V32.298C123.327 31.2511 122.478 30.4024 121.431 30.4024H103.19C96.5567 30.4024 91.16 35.7991 91.16 42.4323V42.5452C91.16 44.09 91.5252 45.6371 92.216 47.0186L93.1868 48.9603V52.0564C93.1868 56.9633 95.6048 61.3659 99.2674 64.0153L99.2679 66.754C99.2679 67.1764 99.2679 67.3513 97.7026 67.7986L93.8826 68.89L82.8322 64.8718C82.8718 64.3504 82.6959 63.8201 82.3155 63.4205L78.7844 59.7107V53.4829C79.1577 53.1753 79.5257 52.8594 79.8823 52.5253C84.337 48.3499 86.8918 42.4548 86.8918 36.3516V31.378C88.2369 28.4509 88.9186 25.3535 88.9186 22.1636V1.89562C88.9186 0.848731 88.0699 0 87.023 0H58.6471C48.661 0 40.5369 8.12436 40.5369 18.1102V22.1641C40.5369 25.354 41.2186 28.4514 42.5637 31.3785V35.6578C42.5637 42.7439 45.7145 49.1278 50.6711 53.3366V59.7109L47.14 63.4208C46.7596 63.8204 46.5837 64.3506 46.6233 64.8721L34.9602 69.1129C34.115 69.4203 33.3298 69.8366 32.6167 70.3408L30.7853 69.4251C36.2371 67.052 37.9642 63.7145 38.0471 63.5487C38.314 63.0151 38.314 62.3868 38.0471 61.8532C36.6804 59.12 36.5149 54.1103 36.382 50.085C36.3377 48.7449 36.2958 47.4789 36.2156 46.3516C35.5694 37.2592 28.6572 30.4024 20.137 30.4024C11.6168 30.4024 4.70442 37.259 4.05839 46.3516C3.97827 47.4791 3.93631 48.7452 3.89208 50.0855C3.75914 54.1105 3.59333 59.1197 2.22697 61.853C1.96007 62.3865 1.96007 63.0149 2.22697 63.5484C2.30987 63.7142 4.03337 67.0449 9.49603 69.4208L4.40895 71.9642C1.68937 73.325 0 76.0585 0 79.0988V93.1034C0 94.1502 0.848731 94.999 1.89562 94.999C2.9425 94.999 3.79123 94.1502 3.79123 93.1034V79.0988C3.79123 77.5034 4.67763 76.0691 6.10439 75.3556L12.439 72.1884L14.6425 74.2824C16.1833 75.7466 18.1598 76.4783 20.137 76.4783C22.1138 76.4783 24.0913 75.7461 25.6315 74.2824L27.8347 72.1886L29.9002 73.2214C28.9276 74.7775 28.3756 76.6024 28.3756 78.5139V93.1039C28.3756 94.1508 29.2244 94.9995 30.2712 94.9995C31.3181 94.9995 32.1669 94.1508 32.1669 93.1039V78.5139C32.1669 75.9116 33.81 73.5656 36.2558 72.6762L48.5526 68.2048L53.6715 75.8836C54.3259 76.8653 55.3745 77.4949 56.5485 77.6111C56.6795 77.624 56.8096 77.6303 56.9395 77.6303C57.9753 77.6303 58.9673 77.2226 59.7089 76.4813L62.8319 73.3584V93.1041C62.8319 94.151 63.6806 94.9997 64.7275 94.9997C65.7744 94.9997 66.6231 94.151 66.6231 93.1041V73.3584L69.7461 76.4813C70.4874 77.2229 71.4794 77.6306 72.5154 77.6306C72.6451 77.6306 72.7755 77.6243 72.9062 77.6114C74.0805 77.4951 75.1291 76.8655 75.7835 75.8838L80.9027 68.2053L93.1992 72.6767C95.6448 73.5661 97.2881 75.9121 97.2881 78.5144V93.1044C97.2881 94.1513 98.1369 95 99.1838 95C100.231 95 101.079 94.1513 101.079 93.1044V78.5144C101.079 75.8788 100.032 73.4069 98.2756 71.5788L98.744 71.4451C99.2164 71.3101 99.8609 71.1253 100.508 70.8081L105.348 75.648V93.1044C105.348 94.1513 106.197 95 107.243 95C108.29 95 109.139 94.1513 109.139 93.1044V75.648L113.945 70.8417C114.201 70.9717 114.469 71.0814 114.752 71.162L122.581 73.3988C124.368 73.9094 125.616 75.5641 125.616 77.4228V93.1044C125.616 94.1513 126.465 95 127.512 95C128.559 95 129.407 94.1513 129.407 93.1044V77.4228C129.407 73.8798 127.029 70.7257 123.623 69.7524ZM12.161 66.4042C8.6152 65.1283 6.83661 63.4274 6.07735 62.4985C6.59498 61.1453 6.93063 59.5954 7.15785 57.9594C8.20322 60.4659 9.95401 62.6057 12.161 64.1323V66.4042ZM23.0204 71.5345C21.4035 73.0707 18.8707 73.0705 17.2544 71.5343L15.4915 69.8591C15.789 69.3017 15.9525 68.6699 15.9525 68.0079V65.9874C17.2749 66.4007 18.6807 66.6236 20.1375 66.6236C21.5926 66.6236 22.9976 66.3997 24.3223 65.9887L24.322 68.0077C24.322 68.6699 24.4853 69.302 24.783 69.8596L23.0204 71.5345ZM20.138 62.8324C14.4775 62.8324 9.87263 58.2273 9.87263 52.567C9.87263 51.5201 9.0239 50.6714 7.97701 50.6714C7.87086 50.6714 7.76723 50.6822 7.66588 50.6992C7.67144 50.5361 7.67674 50.3729 7.6823 50.2114C7.72451 48.9079 7.76521 47.6768 7.84027 46.6208C8.08241 43.2148 9.44346 40.0761 11.6727 37.7827C13.9219 35.4685 16.9281 34.1942 20.1375 34.1942C23.3469 34.1942 26.3529 35.4685 28.6023 37.7827C30.8316 40.0761 32.1926 43.2148 32.4348 46.6208C32.5096 47.6765 32.5505 48.9074 32.5935 50.2106C32.5973 50.3226 32.6011 50.4361 32.6049 50.5488C30.5424 47.3712 27.3573 45.0295 23.2418 43.7071C19.4397 42.4856 16.1696 42.5612 16.0316 42.5647C15.5352 42.5786 15.0641 42.7864 14.7196 43.1437L11.2994 46.6908C10.5727 47.4445 10.5945 48.6446 11.3482 49.3712C12.1019 50.0979 13.3019 50.0759 14.0286 49.3224L16.8745 46.3711C19.3254 46.4909 27.2104 47.4079 30.2771 54.1606C29.5054 59.1367 25.2284 62.8324 20.138 62.8324ZM28.113 66.4105L28.1133 64.1497C30.3185 62.6314 32.0718 60.4957 33.118 57.9702C33.3452 59.6025 33.6806 61.1488 34.1972 62.499C33.4422 63.419 31.6553 65.1352 28.113 66.4105ZM46.3549 35.6576V30.9544C46.3549 30.6691 46.2905 30.3872 46.1664 30.1302C44.9466 27.6042 44.3281 24.9241 44.3281 22.1641V18.1105C44.3281 10.2148 50.7517 3.79149 58.6471 3.79149H85.1274V22.1643C85.1274 24.9243 84.5089 27.6045 83.2891 30.1305C83.165 30.3875 83.1006 30.6693 83.1006 30.9547V36.3521C83.1006 41.4857 81.0369 46.2472 77.2896 49.7597C76.8218 50.198 76.3363 50.6089 75.8343 50.9918C75.8232 50.9994 75.8126 51.0078 75.8017 51.0156C72.2913 53.6808 67.9915 54.9762 63.5012 54.6853C53.8863 54.0628 46.3549 45.7048 46.3549 35.6576ZM57.0283 73.8002C57.0151 73.8133 56.9845 73.8444 56.9226 73.8378C56.8609 73.8318 56.8367 73.7956 56.8263 73.78L50.9309 64.9368L52.8281 62.9433L61.7716 69.0566L57.0283 73.8002ZM64.7277 66.4849L54.4623 59.468V55.9296C57.1185 57.3654 60.0926 58.2634 63.2557 58.4682C63.7554 58.5005 64.2521 58.5164 64.7472 58.5164C68.3719 58.5164 71.8603 57.65 74.9931 56.0054V59.468L64.7277 66.4849ZM72.6292 73.7805C72.6188 73.7961 72.5946 73.8323 72.5329 73.8383C72.471 73.8462 72.4406 73.8136 72.4272 73.8007L67.6839 69.0573L76.6274 62.9438L78.5248 64.9373L72.6292 73.7805ZM107.243 72.1811L102.942 67.8795C103.017 67.5386 103.059 67.1653 103.059 66.7535L103.059 65.9536C104.252 66.3453 105.511 66.5779 106.812 66.6168C106.959 66.6213 107.103 66.6234 107.249 66.6234C108.688 66.6234 110.092 66.406 111.428 65.9912V66.7545C111.428 67.1327 111.476 67.5032 111.565 67.8593L107.243 72.1811ZM114.392 59.9344C112.383 61.8841 109.729 62.9138 106.926 62.8273C101.441 62.6628 96.978 57.831 96.978 52.0569V48.5131C96.978 48.2187 96.9095 47.9285 96.7778 47.6654L95.6068 45.3234C95.1779 44.4654 94.9512 43.5049 94.9512 42.5455V42.4325C94.9512 37.8896 98.6472 34.1939 103.19 34.1939H119.536V42.067C119.536 43.3394 119.235 44.6135 118.666 45.7516L117.709 47.6654C117.578 47.9288 117.509 48.2187 117.509 48.5131V52.5667C117.509 55.3672 116.402 57.9836 114.392 59.9344Z" fill="#1B84FF"/>
</svg>
