<svg width="95" height="95" viewBox="0 0 95 95" fill="none" xmlns="http://www.w3.org/2000/svg">
<path d="M41.6843 54.3123H5.87589C4.23859 54.3123 4.23859 51.8372 5.87589 51.8372H38.2147C40.0549 51.8372 40.0571 49.0547 38.2147 49.0547H8.61923V8.04085H84.1709V49.0547H75.2146C73.3751 49.0547 73.3715 51.8372 75.2146 51.8372H87.4179C89.0545 51.8372 89.0545 54.3123 87.4179 54.3123H71.9936C70.1541 54.3123 70.1512 57.0955 71.9936 57.0955H87.4179C89.6344 57.0955 91.4376 55.2915 91.4376 53.0751C91.4376 50.858 89.6344 49.0547 87.4179 49.0547H86.9541V8.04085H87.4179C89.6344 8.04085 91.4376 6.23684 91.4376 4.02042C91.4376 1.80328 89.6344 0 87.4179 0H5.87589C3.65875 0 1.85547 1.80328 1.85547 4.02042C1.85547 6.22379 3.63773 8.0191 5.83603 8.04085V49.0547C3.63773 49.0764 1.85547 50.871 1.85547 53.0751C1.85547 55.2915 3.65875 57.0955 5.87589 57.0955H41.6843C43.5238 57.0955 43.5267 54.3123 41.6843 54.3123ZM5.87589 2.7832H87.4179C89.0545 2.7832 89.0545 5.25764 87.4179 5.25764H5.87589C4.23786 5.25764 4.24004 2.7832 5.87589 2.7832Z" fill="#1B84FF"/>
<path d="M25.8057 13.0744C25.8057 11.8524 24.8113 10.8587 23.5893 10.8587H14.8534C13.6314 10.8587 12.6377 11.8524 12.6377 13.0744V18.4712C12.6377 19.6932 13.6314 20.6869 14.8534 20.6869H23.5893C24.8113 20.6869 25.8057 19.6932 25.8057 18.4712V13.0744ZM23.0225 17.9037H15.4202V13.6412H23.0225V17.9037Z" fill="#1B84FF"/>
<path d="M25.8057 25.9707C25.8057 24.7487 24.8113 23.755 23.5893 23.755H14.8534C13.6314 23.755 12.6377 24.7487 12.6377 25.9707V31.3675C12.6377 32.5895 13.6314 33.5832 14.8534 33.5832H23.5893C24.8113 33.5832 25.8057 32.5895 25.8057 31.3675V25.9707ZM23.0225 30.8H15.4202V26.5375H23.0225V30.8Z" fill="#1B84FF"/>
<path d="M23.5893 36.6513H14.8534C13.6314 36.6513 12.6377 37.645 12.6377 38.867V44.2638C12.6377 45.4858 13.6314 46.4795 14.8534 46.4795H23.5893C24.8113 46.4795 25.8057 45.4858 25.8057 44.2638V38.867C25.8057 37.645 24.8113 36.6513 23.5893 36.6513ZM23.0225 43.697H15.4202V39.4338H23.0225V43.697Z" fill="#1B84FF"/>
<path d="M84.6749 63.2308C83.1593 62.5792 81.5699 62.1139 79.9507 61.7986L65.8513 59.0574V55.5733C69.8108 52.8728 71.954 49.0473 72.4208 44.7515C74.4756 44.5884 76.0984 42.8641 76.0984 40.768V37.908C79.4491 36.4511 78.9961 31.5617 75.4512 30.7369V29.6323C75.4512 19.7092 67.4067 11.664 57.4828 11.664H55.9767C46.0529 11.664 38.0084 19.7092 38.0084 29.6323V30.7362C34.4649 31.561 34.0104 36.4511 37.3619 37.908V40.7673C37.3619 42.8641 38.984 44.5884 41.0395 44.7507C41.5041 49.027 43.6212 52.8532 47.609 55.5733V59.0567L33.5096 61.7986C31.8904 62.1139 30.3009 62.5785 28.7854 63.2308C23.0646 65.6929 20.2734 69.6234 20.2734 75.1754V78.0339C20.2734 79.8735 23.0559 79.8764 23.0559 78.0339V75.1761C23.0559 71.0064 24.9505 68.1231 29.1065 66.1314C29.2739 66.8721 31.8237 73.7932 31.8237 83.4634V92.2174H25.9435C24.3489 92.2174 23.0559 90.9244 23.0559 89.3298V83.5706C23.0559 81.7311 20.2734 81.7282 20.2734 83.5706V89.3298C20.2734 92.4617 22.8117 94.9999 25.9435 94.9999H87.5168C90.6486 94.9999 93.1868 92.4617 93.1868 89.3298V75.1761C93.1868 69.6234 90.3949 65.6929 84.6749 63.2308ZM81.759 65.0971C81.5655 65.9466 78.8533 73.2481 78.8533 83.4634V92.2174H58.1214V85.2065C58.1214 83.122 58.7556 81.1187 59.9551 79.4139C61.7519 76.859 69.1527 66.1807 71.3474 62.9612C81.3365 64.9725 80.1319 64.5557 81.759 65.0971ZM55.781 77.8121C54.7134 76.2944 53.3269 74.3027 51.8795 72.2153C52.3093 72.1204 52.7289 71.9551 53.1225 71.7195L56.7298 69.556L60.3371 71.7195C60.7306 71.9551 61.1503 72.1204 61.5801 72.2153C60.1341 74.302 58.7476 76.293 57.6793 77.8121C57.3234 78.3181 57.0066 78.8443 56.7298 79.3871C56.4536 78.8443 56.1369 78.3181 55.781 77.8121ZM53.8893 68.0144C51.6859 69.1944 51.8425 69.5473 50.8416 69.4285C50.219 69.3545 49.6601 69.0081 49.3036 68.492C47.6402 66.0828 46.1 63.8476 45.0918 62.3813L47.8786 61.8399C48.7788 64.5738 51.7454 66.7482 53.8893 68.0144ZM68.3685 62.382C67.3574 63.8512 65.8136 66.093 64.1459 68.508C63.4653 69.4923 62.2454 69.6184 61.7685 69.3321L59.5702 68.0144C61.7149 66.7482 64.6807 64.5738 65.5809 61.8399L68.3685 62.382ZM48.6251 16.3483V18.0936C48.6251 19.9331 51.4076 19.936 51.4076 18.0936V15.1495C52.6564 14.7545 53.9748 14.5175 55.3389 14.4609V21.3414C55.3389 23.1809 58.1214 23.1838 58.1214 21.3414V14.4609C59.4854 14.5175 60.8038 14.7552 62.0519 15.1495V18.0936C62.0519 19.9331 64.8351 19.936 64.8351 18.0936V16.349C73.5341 21.1819 72.6093 30.4187 72.6687 30.639H40.7916C40.8394 30.46 39.9711 21.1573 48.6251 16.3483ZM38.868 33.4215H74.5923C75.9266 33.4215 75.9245 35.4372 74.5923 35.4372H38.868C37.5336 35.4372 37.5358 33.4215 38.868 33.4215ZM43.7342 43.3425C43.7176 42.5858 43.1001 41.9813 42.3426 41.9813C42.1107 41.9233 40.1451 42.3423 40.1451 40.768V38.2204H73.3159V40.768C73.3159 42.3401 71.2967 41.9364 71.1176 41.9813C70.3602 41.9813 69.742 42.5858 69.726 43.3425C69.6514 46.8215 68.1735 50.0526 65.6701 52.2074C60.3559 56.783 53.1051 56.7837 47.7902 52.2074C45.2868 50.0526 43.8082 46.8208 43.7342 43.3425ZM63.0681 57.1099V60.204C63.0681 62.6923 58.8454 65.3269 56.7298 66.3916C54.6163 65.3276 50.4031 62.6995 50.3915 60.2142C50.3915 60.2113 50.3915 60.2077 50.3915 60.204V57.1099C54.4416 58.8567 59.0136 58.8588 63.0681 57.1099ZM31.7012 65.0971C33.3262 64.5571 32.1187 64.9732 42.1122 62.9612L42.9073 64.1165C43.7183 65.2957 44.841 66.9258 46.0855 68.7291C48.3555 72.0196 51.4866 76.5445 53.5052 79.4132C54.7047 81.1187 55.3389 83.1213 55.3389 85.2065V92.2167H34.6069V83.4626C34.6069 72.985 31.9607 66.2394 31.7012 65.0971ZM90.4036 89.3298C90.4036 90.9215 89.1092 92.2167 87.5168 92.2167H81.6365V83.4634C81.6365 74.0585 84.2509 66.5866 84.3545 66.1314C88.5098 68.1231 90.4044 71.0064 90.4044 75.1761V89.3298H90.4036Z" fill="#1B84FF"/>
<path d="M64.315 80.4874C63.0032 80.4874 61.9355 81.555 61.9355 82.8669V85.6552C61.9355 86.9678 63.0032 88.0347 64.315 88.0347H72.4987C73.8105 88.0347 74.8782 86.9678 74.8782 85.6552V82.8669C74.8782 81.555 73.8105 80.4874 72.4987 80.4874H64.315ZM72.095 85.2515H64.7188V83.2706H72.095V85.2515Z" fill="#1B84FF"/>
</svg>
