<svg width="104" height="95" viewBox="0 0 104 95" fill="none" xmlns="http://www.w3.org/2000/svg">
<path d="M12.1466 23.853H10.1794C8.212 23.853 6.42778 24.6596 5.12975 25.9576C3.83153 27.2561 3.02516 29.0401 3.02516 31.0071V36.9719C3.02516 37.8069 2.35032 38.4813 1.5155 38.4813C0.680685 38.4813 0 37.8069 0 36.9719V31.0071C0 28.2051 1.14369 25.6601 2.99086 23.8187C4.72929 22.0803 7.09111 20.9592 9.70451 20.8394C8.91549 19.381 8.46943 17.7166 8.46943 15.9499V6.46792C8.46943 4.68975 9.19571 3.07136 10.3678 1.89862C11.5404 0.726482 13.1588 0.000202018 14.9374 0.000202018H22.7319C24.5105 0.000202018 26.1291 0.726482 27.3013 1.89862C28.4679 3.07136 29.1942 4.68955 29.1942 6.46792V15.9499C29.1942 17.7113 28.7538 19.3753 27.9704 20.8281H29.1313C29.9604 20.8281 30.7783 20.9423 31.5389 21.2398C32.311 21.537 33.0201 21.9944 33.632 22.6063L47.6201 36.5771L52.0638 32.128C52.6583 31.5389 53.6136 31.5389 54.2083 32.128C54.7972 32.7225 54.7972 33.6778 54.2083 34.2669L49.759 38.716L51.955 40.9123C52.7043 41.6556 53.2189 42.6623 53.4877 43.6744L64.302 32.8886C64.5763 32.5686 64.9881 32.3685 65.4457 32.3685C66.2807 32.3685 66.9612 33.0431 66.9612 33.8779V54.4195H83.969V34.4614C83.969 33.6263 84.6439 32.9455 85.4845 32.9455C86.3195 32.9455 86.9942 33.6263 86.9942 34.4614V54.4195H92.1984V31.0071C92.1984 29.0401 91.3922 27.2559 90.0998 25.9576C88.8014 24.6596 87.0113 23.853 85.05 23.853H83.6545C81.8475 25.3859 79.5141 26.3121 76.9693 26.3121C74.4245 26.3121 72.0853 25.3857 70.2782 23.8474C68.6084 23.8246 65.1142 23.3612 63.5644 24.9108L59.3669 29.1085C58.772 29.6976 57.8167 29.6976 57.2278 29.1085C56.6331 28.5194 56.6331 27.5587 57.2278 26.9696L61.5857 22.6061C62.1976 22 62.9067 21.5425 63.6844 21.2396C64.4565 20.9421 65.2742 20.8051 66.0977 20.8279H67.8361C67.0527 19.3751 66.6067 17.7111 66.6067 15.9497V6.46772C66.6067 4.68955 67.333 3.07115 68.5051 1.89841C69.6777 0.72628 71.296 0 73.0744 0H80.8692C82.6478 0 84.2662 0.72628 85.4385 1.89841C86.605 3.07115 87.3371 4.68935 87.3371 6.46772V15.9497C87.3371 17.7339 86.8796 19.4153 86.0791 20.8791C88.4697 21.1251 90.6199 22.2003 92.2383 23.8185C94.0796 25.6599 95.2235 28.2049 95.2235 31.0069V54.4195H101.783C102.618 54.4195 103.293 55.1 103.293 55.935V67.3269C103.293 68.1619 102.618 68.8424 101.783 68.8424H95.2235V93.4845C95.2235 94.3195 94.5485 95 93.7137 95H7.65741C6.82239 95 6.14776 94.3195 6.14776 93.4845V57.2962C4.6381 56.9932 3.28823 56.25 2.24178 55.2035C0.857817 53.8191 0 51.9034 0 49.7875V43.8231C0 42.9881 0.680484 42.3133 1.5155 42.3133C2.35052 42.3133 3.02516 42.9883 3.02516 43.8231V49.7875C3.02516 51.0686 3.54545 52.2237 4.38047 53.0646C5.22114 53.9051 6.38218 54.4197 7.65741 54.4197H8.22915V34.4616C8.22915 33.6265 8.90984 32.9457 9.74486 32.9457C10.5797 32.9457 11.2545 33.6265 11.2545 34.4616V54.4197H28.268V33.8781C28.268 33.0431 28.9428 32.3687 29.7777 32.3687C30.2409 32.3687 30.647 32.5688 30.927 32.8946L45.4584 47.4087C46.0532 48.0033 46.8196 48.295 47.5973 48.295C48.3981 48.295 49.2101 47.9865 49.8563 47.3801L49.9251 47.3173C50.5311 46.7054 50.7369 45.8989 50.6798 45.127C50.6227 44.3093 50.3023 43.5544 49.8678 43.091L49.8278 43.0512C43.7202 36.9493 37.6124 30.8473 31.5048 24.7454C30.7501 23.9904 30.0464 23.8532 29.0401 23.8532H25.517C23.71 25.3861 21.3768 26.3123 18.8318 26.3123C16.2929 26.3123 13.9538 25.3859 12.1466 23.853ZM84.3065 13.1077C81.9792 13.4678 78.0389 13.4963 74.8022 10.5914C73.6869 11.2604 71.8625 12.0324 69.6323 11.8035V15.9499C69.6323 17.9686 70.4614 19.7984 71.7939 21.1311C73.1206 22.4634 74.9567 23.2869 76.9695 23.2869C78.9882 23.2869 80.8238 22.4634 82.1507 21.1311C83.4832 19.7986 84.3065 17.9686 84.3065 15.9499V13.1077ZM69.6321 8.7672C71.1647 9.01858 72.8345 8.50393 73.9897 7.48028C74.619 6.93738 75.574 7.00577 76.1173 7.63481C78.7939 10.7114 82.5338 10.4199 84.3065 10.0537V6.46792C84.3065 5.52457 83.9236 4.6609 83.2944 4.03751C82.671 3.41412 81.8132 3.02516 80.8694 3.02516H73.0746C72.1309 3.02516 71.273 3.41412 70.644 4.03751C70.0206 4.6609 69.6319 5.52457 69.6319 6.46792V8.7672H69.6321ZM11.4948 11.8666C11.5119 12.7989 11.8495 13.6393 12.5069 14.3029C13.136 14.9263 13.9938 15.3092 14.9376 15.3092H22.7321C23.6759 15.3092 24.5337 14.9263 25.1571 14.3029C25.7805 13.6795 26.1693 12.8217 26.1693 11.8779V6.46792C26.1693 5.52457 25.7862 4.6609 25.1571 4.03751C24.5337 3.41412 23.6759 3.02516 22.7321 3.02516H14.9376C13.9938 3.02516 13.136 3.41412 12.5069 4.03751C11.8835 4.6609 11.4948 5.52457 11.4948 6.46792V11.8666ZM26.0204 17.4366C25.0538 18.0083 23.9273 18.3402 22.7319 18.3402H14.9376C13.7366 18.3402 12.6157 18.0083 11.6491 17.4366C11.9467 18.8607 12.6556 20.1357 13.6506 21.1309C14.9831 22.4632 16.8188 23.2867 18.832 23.2867C20.8509 23.2867 22.6864 22.4632 24.0132 21.1309C25.0082 20.1357 25.723 18.8607 26.0204 17.4366ZM65.3946 68.8424C64.5596 68.8424 63.8791 68.1619 63.8791 67.3269C63.8791 66.4919 64.5596 65.8171 65.3946 65.8171H100.268V57.4451C77.2784 57.4451 54.2829 57.4451 31.2932 57.4451V65.8171H58.0971C58.9321 65.8171 59.6128 66.4921 59.6128 67.3269C59.6128 68.1619 58.9321 68.8424 58.0971 68.8424H31.2932V91.9748H92.1984V68.8424H65.3946ZM31.2932 54.4197H63.9304V37.5208L52.6127 48.804C51.2402 50.1708 49.5361 51.3203 47.5973 51.3203C46.0534 51.3203 44.5207 50.7371 43.3313 49.5476L31.2932 37.521V54.4197ZM17.2078 91.9748V63.9931C17.2078 63.1581 17.8826 62.4832 18.7176 62.4832C19.5525 62.4832 20.2331 63.1583 20.2331 63.9931V91.9748H28.268V57.4451H9.17291V91.9748H17.2078Z" fill="#1B84FF"/>
</svg>
