<svg width="1108" height="642" viewBox="0 0 1108 642" fill="none" xmlns="http://www.w3.org/2000/svg">
<path d="M171.5 127.5C206.5 72 110.5 42 0 -17.5L162.001 -69L1104 -3.5L1157.5 187.5C1034 229.5 1158.5 444 1126 517.5C1099.11 578.32 988 633.869 921 640.5C783 654.159 593 553.648 497 557.5C430.23 560.179 230 635.5 187.5 557.5C145 479.5 275 474.637 275 323.5C275 194.5 118.151 212.096 171.5 127.5Z" fill="#D4E5FC"/>
<path d="M176.5 118.5C211.5 63 138.5 47 28 -12.5L167.001 -78L1109 -12.5L1153.5 174C1059.5 241.5 1163.5 435 1131 508.5C1104.11 569.32 993 624.869 926 631.5C788 645.159 598 544.648 502 548.5C435.23 551.179 235 626.5 192.5 548.5C150 470.5 280 465.637 280 314.5C280 185.5 123.151 203.096 176.5 118.5Z" fill="#E7EFFA"/>
</svg>
