<svg width="320" height="218" fill="none" xmlns="http://www.w3.org/2000/svg">
<path d="M-3.1967 -4.144C20.4894 -49.2986 120.733 -6.88199 154.803 -11.0969L239.875 -21.0974L339.375 -11.0975L335.304 138.856C339.804 156.856 349.162 156.572 339.375 177.356C325.662 206.48 300.304 215.926 262.804 209.141C229.289 203.077 187.803 231.641 133.304 209.141C74.7986 184.987 35.8026 240.64 -3.1972 191.356C-42.197 142.072 -19.6964 27.3106 -3.1967 -4.144Z" fill="#D4E5FC"/>
<path d="M-2.99944 -6.49996C20.6866 -51.6546 120.93 -9.23794 155 -13.4529L240.072 -23.4533L339.572 -13.4534L335.501 136.5C340.001 154.5 349.359 154.216 339.572 175C325.859 204.124 300.501 213.57 263.001 206.785C229.486 200.721 188.001 229.285 133.501 206.785C74.9958 182.631 35.9999 238.284 -2.99993 189C-41.9997 139.716 -19.4991 24.9547 -2.99944 -6.49996Z" fill="#E7EFFA"/>
</svg>
