<svg width="323" height="419" fill="none" xmlns="http://www.w3.org/2000/svg">
<path d="M107.589 124.5C107.589 90.2765 23.0888 57.5 117.589 -17L178.589 -30L288.088 -17H337.588L356.088 92C314.162 122.199 362.584 175.116 348.088 208C336.093 235.211 348.625 389.988 336.588 417.5C333.088 425.5 253.588 393 202.588 390C140.88 386.37 51.0882 441 11.088 386C-28.9122 331 54.0889 289 29.0887 246.5C-8.2645 183 107.588 166.5 107.589 124.5Z" fill="#D4E5FC"/>
<path d="M109.589 118.5C109.589 84.2765 25.0888 51.5 119.589 -23L180.589 -36L290.088 -23H339.588L358.088 86C316.162 116.199 364.584 169.116 350.088 202C338.093 229.211 350.625 383.988 338.588 411.5C335.088 419.5 255.588 387 204.588 384C142.88 380.37 53.0882 435 13.088 380C-26.9122 325 56.0889 283 31.0887 240.5C-6.2645 177 109.588 160.5 109.589 118.5Z" fill="#E7EFFA"/>
</svg>
