<svg width="1000" height="1000" xmlns="http://www.w3.org/2000/svg">
 <g>
  <title>background</title>
 </g>
 <g>
  <title>Layer 1</title>
  <g stroke="null" id="svg_18">
   <g id="svg_4" fill="#025a99" transform="matrix(0.1957581956748274,0,0,-0.19619076449065914,-5096.923414044144,-4048.6152109558907) ">
    <path stroke="null" id="svg_5" d="m28307.62108,-20641.09326c-43,-12 -83,-57 -93,-104c-9,-44 3,-39 -167,-75c-152,-33 -279,-72 -440,-132c-78,-30 -110,-52 -137,-96c-29,-48 -29,-150 2,-242c27,-81 37,-204 21,-253c-12,-36 -50,-75 -162,-162c-133,-104 -305,-300 -399,-453c-26,-43 -30,-56 -20,-62c10,-6 29,14 68,73c116,175 249,320 415,451c163,129 173,170 103,444c-29,113 -26,154 15,206c27,35 49,45 209,99c157,54 485,137 493,126c2,-2 11,-17 21,-32c46,-74 167,-74 225,-1c24,30 29,106 9,149c-22,49 -104,82 -163,64zm127,-72c10,-13 18,-40 18,-63c0,-36 -5,-47 -37,-74c-32,-28 -41,-32 -77,-27c-49,7 -96,55 -96,100c0,42 29,84 69,101c31,12 41,12 71,0c19,-8 43,-25 52,-37z"/>
    <path stroke="null" id="svg_6" d="m28741.62108,-20776.09326c-81,-24 -131,-97 -163,-237c-18,-78 -56,-164 -85,-194c-38,-40 -93,-60 -191,-72c-201,-23 -413,-87 -602,-182c-43,-22 -78,-43 -78,-49c0,-21 21,-18 81,14c186,96 420,166 644,192c76,8 112,23 159,64c46,41 67,85 106,222c58,208 90,229 314,209c140,-14 315,-55 441,-104l90,-35l6,-57c11,-98 89,-153 178,-126c124,37 126,221 4,262c-45,15 -95,4 -133,-28l-31,-26l-92,37c-129,51 -213,73 -362,95c-187,28 -234,30 -286,15zm895,-128c45,-19 66,-52 66,-102c0,-35 -5,-47 -31,-68c-42,-36 -71,-41 -114,-21c-83,40 -85,148 -3,188c40,20 41,20 82,3z"/>
    <path stroke="null" id="svg_7" d="m27126.62108,-21067.09326c-48,-24 -78,-84 -71,-143l6,-48l-73,-56c-107,-82 -271,-256 -350,-374c-63,-93 -70,-107 -74,-162c-4,-51 -1,-66 23,-106c15,-25 52,-72 83,-103c80,-81 129,-145 142,-187c16,-46 7,-112 -23,-178c-93,-201 -157,-474 -157,-668c0,-45 3,-58 15,-58c12,0 15,14 15,63c0,69 32,282 56,367c28,99 71,224 103,293c62,137 39,216 -110,374c-158,168 -157,200 7,419c94,125 324,344 361,344c5,0 26,-9 48,-20c52,-27 93,-25 138,5c147,101 20,318 -139,238zm111,-27c41,-18 55,-42 55,-99c0,-38 -5,-49 -31,-71c-98,-83 -227,44 -144,143c22,26 35,32 78,40c4,0 23,-5 42,-13z"/>
    <path stroke="null" id="svg_8" d="m29822.62108,-21157.09326c-24,-9 -99,-73 -176,-150c-111,-110 -172,-132 -274,-95c-250,89 -315,108 -465,131c-195,30 -301,36 -308,18c-9,-23 1,-27 67,-27c204,-1 469,-60 688,-154c56,-24 139,-21 196,8c27,14 88,65 138,113c180,180 202,179 473,-20c67,-49 246,-228 284,-284l28,-41l-20,-38c-53,-99 9,-204 120,-204c65,0 109,32 127,91c13,40 13,52 0,90c-21,64 -66,91 -140,87l-57,-3l-57,69c-77,93 -158,173 -250,246c-87,70 -201,146 -239,160c-28,11 -110,12 -135,3zm809,-519c36,-26 54,-79 41,-120c-31,-92 -159,-97 -196,-7c-39,93 73,184 155,127z"/>
    <path stroke="null" id="svg_9" d="m29547.62108,-21529.09326c-3,-6 27,-31 67,-57c167,-107 330,-255 455,-412c41,-51 93,-105 115,-120c37,-24 51,-27 122,-27c59,1 107,9 175,29c123,37 206,34 250,-8c79,-76 213,-438 236,-636c6,-55 6,-55 -29,-74c-68,-37 -90,-106 -58,-179c65,-146 288,-72 258,86c-9,48 -42,85 -91,101c-33,11 -41,19 -43,43c-16,148 -82,368 -159,531c-56,119 -83,156 -137,181c-58,28 -90,27 -243,-14c-149,-39 -178,-42 -230,-20c-47,20 -62,34 -136,125c-127,158 -263,283 -432,399c-89,61 -109,69 -120,52zm1504,-1335c35,-19 66,-75 58,-108c-23,-90 -137,-118 -189,-45c-64,90 32,204 131,153z"/>
    <path stroke="null" id="svg_10" d="m28515.62108,-21911.09326c-76,-37 -108,-117 -78,-195l17,-46l-43,-45c-101,-105 -203,-203 -211,-203c-4,0 -138,65 -298,145c-192,96 -291,141 -296,133c-11,-17 6,-26 297,-170c148,-73 268,-136 269,-140c0,-10 -143,-148 -154,-148c-6,0 -90,80 -187,178c-246,247 -247,248 -260,235c-8,-8 46,-69 205,-228c187,-188 215,-220 204,-233c-17,-21 -138,-142 -142,-142c-2,0 -65,123 -140,273c-75,150 -142,282 -150,293c-13,17 -15,17 -21,3c-4,-11 48,-125 139,-307l145,-290l-126,-127l-126,-127l-34,16c-105,50 -223,-27 -223,-147c0,-59 32,-106 93,-136c56,-27 95,-24 152,15l38,25l39,-38c22,-21 76,-78 120,-126l81,-88l-151,-303c-84,-167 -152,-308 -152,-314c0,-47 44,26 170,279c80,160 150,295 156,300c8,6 33,-15 80,-66c38,-42 71,-81 73,-87c2,-6 -96,-110 -218,-232c-172,-173 -218,-224 -211,-236c8,-12 55,30 232,208c123,122 227,222 231,222c8,0 160,-156 164,-168c2,-6 -415,-225 -544,-286c-27,-12 -43,-26 -43,-38c0,-10 3,-18 6,-18c3,0 69,33 147,74c374,194 459,237 465,234c4,-2 56,-54 116,-116l110,-113l-18,-49c-40,-111 31,-220 144,-220c116,0 193,121 143,225l-17,36l129,129c71,72 134,130 139,130c5,0 100,-48 210,-106c111,-59 239,-127 285,-151c64,-34 86,-42 92,-32c10,16 5,19 -146,99c-66,34 -151,80 -190,100c-38,21 -103,54 -142,74c-40,21 -75,41 -77,45c-6,9 132,146 139,140c2,-2 101,-101 220,-219c169,-169 218,-211 227,-202c10,10 -34,59 -207,232l-218,219l73,76c41,41 78,74 83,72c5,-1 73,-129 151,-282c127,-251 166,-316 166,-273c0,8 -63,140 -140,293c-77,153 -140,286 -140,295c0,8 54,69 119,134l120,120l54,-19c52,-18 57,-18 100,-1c54,20 82,49 101,104c13,36 13,48 1,90c-8,27 -23,56 -32,64c-55,48 -129,61 -185,32l-31,-16l-123,123c-68,68 -124,129 -124,135c0,6 63,138 141,293c122,245 155,328 121,307c-5,-3 -71,-131 -148,-285c-76,-154 -143,-281 -149,-281c-5,0 -42,33 -82,72l-73,73l217,217c173,173 215,220 205,230c-10,10 -57,-32 -230,-205l-217,-217l-80,80c-43,44 -77,81 -74,83c2,2 133,68 291,146c256,128 310,161 263,161c-7,0 -139,-63 -293,-140c-153,-77 -283,-140 -288,-140c-5,0 -65,56 -134,125l-124,124l17,36c37,77 6,163 -73,203c-55,27 -83,28 -137,1zm-23,-278c0,-5 -32,-73 -71,-150l-71,-140l-41,20c-77,39 -79,32 50,161c113,113 133,130 133,109zm313,-109c64,-64 117,-120 117,-124c0,-7 -87,-51 -103,-52c-7,-1 -147,271 -147,286c0,19 22,1 133,-110zm-160,86c14,-23 137,-276 137,-280c0,-7 -186,-98 -200,-98c-9,0 -188,86 -198,95c-4,4 124,262 138,280c7,9 119,12 123,3zm-355,-275c23,-14 42,-26 42,-28c0,-9 -122,-245 -129,-249c-7,-5 -129,115 -146,143c-5,9 17,38 71,92c86,87 85,86 162,42zm744,-40c43,-43 78,-82 78,-88c0,-12 -148,-161 -153,-154c-13,18 -129,260 -126,262c12,8 114,57 118,57c3,0 41,-35 83,-77zm-574,-44c45,-23 81,-43 80,-45c-10,-10 -265,-134 -276,-134c-7,0 10,45 43,110c30,61 58,110 62,110c4,0 45,-19 91,-41zm398,-69c29,-58 49,-106 44,-108c-16,-6 -273,129 -263,139c15,15 147,79 157,76c5,-2 32,-50 62,-107zm62,-168c1,-4 -74,-83 -168,-177l-170,-169l-171,170c-140,140 -169,173 -158,183c8,7 85,47 172,90l158,77l167,-83c92,-46 168,-87 170,-91zm-811,79c35,-35 63,-66 63,-70c-1,-4 -203,-109 -251,-129c-8,-3 -59,100 -59,120c0,7 35,47 77,90c87,88 72,89 170,-11zm1176,-135c-16,-31 -34,-56 -41,-56c-7,0 -67,27 -134,61l-121,61l79,79l79,80l83,-85l83,-84l-28,-56zm-1428,-26c14,-27 25,-51 25,-54c0,-9 -291,-148 -297,-142c-7,7 226,246 239,246c4,0 19,-22 33,-50zm530,-116c91,-91 165,-169 165,-173c0,-3 -72,-78 -159,-165c-158,-158 -160,-159 -184,-143c-14,9 -53,73 -97,162l-73,147l84,169c46,93 87,169 91,169c4,0 82,-75 173,-166zm654,0c57,-115 80,-172 75,-186c-10,-32 -154,-317 -163,-322c-4,-3 -84,71 -176,165l-169,170l169,169c94,94 173,170 176,170c3,0 43,-75 88,-166zm426,46c65,-65 116,-122 113,-125c-6,-6 -259,116 -285,137c-9,7 -5,22 13,59c14,27 28,49 32,49c4,0 61,-54 127,-120zm-1305,107c0,-11 -132,-267 -140,-272c-12,-7 -92,157 -82,167c9,9 205,107 215,108c4,0 7,-2 7,-3zm954,-48c55,-28 105,-54 109,-58c11,-11 -72,-173 -84,-165c-5,3 -37,62 -71,132c-33,70 -63,130 -65,135c-8,14 10,7 111,-44zm-1165,-178l50,-99l-37,-76c-35,-73 -54,-89 -77,-67c-6,4 -64,36 -130,71c-144,75 -145,76 -144,109c0,23 14,33 137,93c75,37 140,68 144,68c4,0 30,-45 57,-99zm1473,26l128,-62l-3,-63l-2,-63l-123,-64c-67,-35 -131,-66 -141,-70c-16,-5 -27,11 -69,95l-51,100l50,101c40,80 54,99 67,94c9,-3 74,-34 144,-68zm-668,-324c91,-91 166,-171 166,-177c0,-6 -66,-44 -146,-84l-145,-74l-37,19c-69,35 -317,166 -322,170c-5,4 301,313 311,313c3,0 81,-75 173,-167zm-1099,144c11,-8 65,-38 120,-66c55,-29 106,-58 113,-65c10,-9 7,-23 -15,-66c-15,-30 -29,-57 -31,-60c-3,-4 -26,20 -185,188c-54,57 -64,82 -34,82c7,0 21,-6 32,-13zm1574,-162c1,-11 -221,-127 -228,-119c-2,2 28,70 69,151l73,147l43,-84c24,-47 43,-89 43,-95zm-1154,65c27,-55 47,-102 44,-105c-6,-5 -131,57 -156,77c-9,8 -5,24 17,69c17,32 34,59 38,59c4,0 30,-45 57,-100zm1505,56c0,-13 -239,-243 -246,-237c-5,3 -19,25 -31,48c-17,32 -20,44 -11,50c7,4 69,38 138,75c114,60 150,76 150,64zm-1525,-173c146,-78 148,-84 60,-173c-38,-39 -75,-70 -81,-70c-14,0 -164,155 -164,170c0,18 60,130 69,130c5,0 57,-26 116,-57zm1228,-48l27,-55l-80,-80c-44,-44 -83,-80 -88,-80c-15,0 -146,139 -138,147c14,15 221,121 236,122c10,1 27,-21 43,-54zm-941,-105c51,-27 126,-66 166,-87c39,-20 72,-40 72,-44c0,-14 -202,-111 -211,-102c-12,12 -139,263 -139,275c0,15 18,8 112,-42zm-74,-115c34,-69 62,-132 62,-139c0,-8 -21,-24 -47,-37l-47,-23l-89,94l-89,93l68,68c38,38 71,69 74,69c3,0 33,-56 68,-125zm769,54c37,-39 69,-74 71,-79c2,-5 -29,-41 -69,-81l-72,-72l-64,33c-35,18 -62,36 -61,40c15,39 115,230 120,230c3,0 37,-32 75,-71zm-137,36c0,-22 -88,-175 -100,-175c-8,0 -42,15 -74,34l-60,34l50,25c27,14 74,39 104,56c52,29 80,37 80,26zm-200,-165c38,-22 74,-40 80,-40c17,0 7,-25 -72,-182l-69,-138l-58,0l-58,0l-68,135c-38,74 -66,137 -64,139c5,5 232,125 237,126c2,0 34,-18 72,-40zm180,-95c28,-14 50,-30 50,-35c0,-16 -253,-265 -257,-253c-4,10 145,313 153,313c3,0 27,-11 54,-25zm-454,-146c36,-72 63,-134 59,-137c-6,-6 -214,207 -215,221c0,9 61,47 77,47c7,0 42,-59 79,-131z"/>
    <path stroke="null" id="svg_11" d="m26307.62108,-22029.09326c-50,-35 -65,-61 -65,-121c0,-47 5,-61 28,-90l29,-34l-24,-60c-64,-163 -102,-349 -110,-533c-7,-153 -1,-176 60,-228c38,-33 135,-69 237,-90c39,-8 101,-38 142,-68c35,-26 64,-96 72,-177c16,-153 94,-405 177,-574c50,-99 62,-116 77,-108c7,5 -7,45 -48,127c-90,186 -158,416 -185,627c-7,57 -50,119 -109,156c-23,15 -83,38 -132,51c-186,49 -224,69 -250,137c-16,43 -17,59 -6,194c16,187 59,370 118,498c13,28 20,32 52,32c59,0 114,37 133,90c14,40 15,51 3,92c-18,58 -58,90 -123,95c-34,3 -53,-1 -76,-16zm150,-51c15,-15 20,-34 20,-71c0,-66 -33,-99 -100,-99c-58,0 -94,30 -101,85c-13,102 107,158 181,85z"/>
    <path stroke="null" id="svg_12" d="m30230.62108,-22215.09326c-3,-3 23,-63 57,-133c93,-187 150,-371 185,-595c19,-121 77,-180 217,-218c222,-61 249,-73 278,-129c20,-40 21,-78 1,-200c-27,-171 -64,-323 -114,-467c-21,-63 -28,-73 -49,-73c-13,0 -41,-9 -62,-20c-79,-40 -94,-150 -30,-216c56,-58 133,-57 195,2c36,33 36,34 32,100c-4,63 -7,70 -40,98l-36,32l27,79c50,148 83,292 115,501c30,194 -15,250 -245,307c-205,51 -245,90 -268,264c-27,189 -99,409 -194,587c-40,75 -56,94 -69,81zm655,-1886c58,-63 17,-169 -67,-169c-51,0 -83,15 -101,49c-20,40 -19,69 5,108c35,58 114,64 163,12z"/>
    <path stroke="null" id="svg_13" d="m30492.62108,-23199.09326c0,-11 -5,-78 -11,-148c-16,-192 -56,-362 -127,-538c-67,-167 -51,-227 108,-390c104,-107 130,-146 130,-195c0,-98 -226,-387 -433,-554c-47,-38 -48,-39 -68,-20c-16,15 -36,19 -86,19c-62,0 -66,-2 -99,-37c-30,-34 -34,-44 -34,-94c0,-52 3,-59 39,-95c36,-36 43,-39 95,-39c50,0 60,4 94,34c36,33 37,37 37,103l0,69l63,49c98,77 229,219 316,344c149,213 145,262 -37,450c-146,150 -154,186 -82,376c44,118 78,241 95,345c6,41 14,86 16,100c3,14 7,73 11,133c5,95 4,107 -11,107c-9,0 -16,-8 -16,-19zm-414,-1885c46,-46 47,-91 3,-141c-26,-29 -38,-35 -73,-35c-45,0 -88,30 -101,71c-20,63 35,139 102,139c27,0 43,-8 69,-34z"/>
    <path stroke="null" id="svg_14" d="m26109.62108,-23285.09326c-116,-60 -87,-238 42,-260c31,-5 42,-12 45,-28c36,-176 89,-361 152,-527c79,-208 143,-237 369,-170c199,60 263,45 365,-87c118,-151 271,-288 450,-405c92,-60 105,-66 114,-51c6,12 5,18 -3,21c-25,8 -189,121 -262,180c-80,64 -248,234 -276,280c-33,53 -97,102 -152,119c-63,18 -139,9 -251,-28c-40,-13 -93,-22 -137,-23c-70,-1 -73,0 -110,36c-26,25 -46,59 -62,105c-13,37 -29,82 -36,98c-36,86 -77,224 -111,374l-24,104l39,36c46,43 59,95 39,156c-24,73 -119,108 -191,70zm107,-25c14,-5 35,-24 46,-42c29,-45 21,-94 -21,-132c-28,-24 -38,-28 -76,-23c-91,10 -128,98 -71,168c30,37 74,47 122,29z"/>
    <path stroke="null" id="svg_15" d="m30250.62108,-24168.09326c-8,-9 -27,-37 -43,-62c-94,-143 -264,-324 -405,-430c-98,-74 -114,-90 -142,-144c-28,-55 -25,-126 11,-282c34,-146 32,-185 -17,-238c-73,-78 -440,-209 -627,-223l-70,-5l-15,34c-17,37 -80,78 -123,78c-128,1 -185,-183 -79,-255c82,-56 186,-15 216,86c3,12 32,20 113,33c59,10 137,27 172,37c35,10 68,19 73,19c12,0 193,73 268,108c65,30 107,66 130,111c15,29 15,130 1,186c-5,22 -17,67 -25,100c-39,153 -17,210 125,320c167,130 309,281 427,452c23,33 42,66 42,71c0,20 -17,22 -32,4zm-1369,-1328c34,-25 53,-76 40,-111c-25,-67 -81,-95 -142,-69c-70,29 -85,111 -30,168c31,33 94,38 132,12z"/>
    <path stroke="null" id="svg_16" d="m26558.62108,-24431.09326c-54,-42 -69,-107 -42,-174c23,-53 69,-77 137,-72l57,5l46,-63c69,-94 269,-281 384,-359c88,-60 109,-70 156,-74c79,-6 126,19 249,136c67,64 119,104 142,112c41,14 148,8 168,-8c18,-15 134,-59 225,-86c134,-40 275,-66 402,-73c108,-5 120,-4 120,10c0,14 -12,17 -74,17c-166,0 -471,73 -651,156c-79,36 -161,38 -224,5c-24,-12 -82,-60 -130,-105c-182,-175 -214,-177 -410,-30c-47,36 -114,90 -150,122c-71,63 -221,239 -221,260c0,7 8,24 17,39c10,14 17,45 17,72c0,83 -52,131 -142,131c-35,0 -57,-6 -76,-21zm155,-38c31,-32 38,-79 18,-124c-13,-28 -58,-57 -89,-57c-34,0 -79,28 -96,61c-52,102 86,201 167,120z"/>
    <path stroke="null" id="svg_17" d="m29497.62108,-24850.09326c-66,-39 -258,-114 -370,-145c-49,-13 -148,-34 -219,-45c-71,-12 -143,-28 -159,-37c-69,-35 -110,-106 -151,-262c-29,-108 -59,-168 -98,-195c-55,-39 -337,6 -623,99c-115,37 -122,42 -129,87c-12,76 -62,118 -140,118c-63,0 -110,-34 -127,-89c-23,-78 10,-147 84,-176c38,-14 46,-14 85,-1c23,8 53,28 66,43l24,27l148,-46c187,-58 459,-118 533,-118c17,0 52,10 77,22c56,26 93,79 118,169c76,272 100,300 273,324c145,20 234,41 368,87c128,44 320,136 317,153c-2,19 -27,14 -77,-15zm-1836,-425c16,-8 36,-31 46,-51c17,-36 17,-39 -3,-79c-38,-78 -132,-86 -180,-15c-62,91 38,197 137,145z"/>
   </g>
  </g>
  <ellipse stroke="#000" ry="30.43276" rx="30.83319" id="svg_19" cy="276.82353" cx="498.58823" stroke-width="0" fill="#fbc508"/>
  <ellipse stroke="#000" ry="30.43276" rx="30.83319" id="svg_21" cy="277.41177" cx="718" stroke-width="0" fill="#fbc508"/>
  <ellipse stroke="#000" ry="31.68275" rx="32.09963" id="svg_22" cy="498.40724" cx="718" stroke-width="0" fill="#fbc508"/>
  <ellipse stroke="#000" ry="31.68275" rx="32.09963" id="svg_23" cy="719.17647" cx="718" stroke-width="0" fill="#fbc508"/>
  <ellipse stroke="#000" ry="31.68275" rx="32.09963" id="svg_24" cy="719.17647" cx="498" stroke-width="0" fill="#fbc508"/>
  <ellipse stroke="#000" ry="31.68275" rx="32.09963" id="svg_25" cy="498.58823" cx="279.41177" stroke-width="0" fill="#fbc508"/>
  <ellipse stroke="#000" ry="31.68275" rx="32.09963" id="svg_26" cy="719.17647" cx="280" stroke-width="0" fill="#fbc508"/>
  <ellipse stroke="#000" ry="31.68275" rx="32.09963" id="svg_27" cy="277.41177" cx="278.95807" stroke-width="0" fill="#fbc508"/>
 </g>
</svg>